#samples
{
	"bass.brr"
	"bells.brr"
	"clarinet.brr"
	"flute.brr"
	"high_open.brr"
	"low_open.brr"
	"pizzicato_bass.brr"
	"pizzicato.brr"
	"ring.brr"
	"strings.brr"
}

#instruments
{
	"high_open.brr" $8F $87 $00 $04 $F7; @30
	"low_open.brr" $9F $A5 $00 $04 $82; @31
	"bass.brr" $BF $8A $00 $04 $02; @32
	"bells.brr" $8F $66 $00 $04 $F5; @33
	"clarinet.brr"  $89 $E4 $00 $04 $02; @34
	"flute.brr" $FA $E5 $00 $04 $00; @35
	"pizzicato_bass.brr" $9F $87 $00 $08 $03; @36
	"pizzicato.brr" $AF $31 $00 $04 $04; @37
	"ring.brr" $CF $CF $00 $03 $57; @38
	"strings.brr" $F9 $E0 $00 $04 $87; @39
}

#amk 2
t70 w255; 
#0-
@32 v240o3g1^2 g+1^2 g1^2 g+1^2 g1^2 g+1^2 g1^2 g+1^2; 0C-0F
@37 v140o2f4 > c8 < b8 > c4 < f4 > e4 c4 < e4 > e4 < b4 e4 > e4 b4; 10
	d4 b4 > c4 < d4 > g4 a4 < c+4 > e4 < g4 c4 > e4 f4; 11
	r4 c4 c4 r4 c4 c4 r4 c4 c4 r4 c2; 12
@39	v110c1^2 d1^2; 13
	r1^2 o4f2 $E8 $C0 $30 ^1; 14
	
#1-
@39 v130o4g1^2 g+1^2 g1^2 g+1^2 g1^2 g+1^2 g1^2 g+1^2; 0C-0F
@37 v140o2r4 a4 a4 r4 b4 a4 r4 g4 g4 r4 a4 e4; 10
	r4 f4 f4 r4 f4 f4 e4 g4 b4 > c4 g4 a4; 11 
	o3r4 a4 a4 r4 a4 a4 r4 g4 g4 r4 g2; 12 
	r1^1^1; 13
@39	r1^2 o3a2 $E8 $C0 $30 ^1; 14
	
#2-
@39 v145o4c1^2 c+1^2 c1^2 c+1^2 c1^2 c+1^2 c1^2 c+1^2; 0C-0F
	r1^1^1^1^1^1; 10-11
@32 v255o3f2^4 f2^4 e2^4 d+2^4; 12
	c1^2 a2 > c4 g2^4; 13
	g+2^4 g+2^4 b2 $E8 $C0 $30 ^1; 14
	
#3-
@39	v110o5e1^2 g1^2 e1^2 g1^2 e1^2 g1^2 e1^2 g1^2; 0C-0F
	r1^1^1^1^1^1; 10-11
@39 v150o4f8 g8 a8 b8 > f2 g4 a4 e2 c4 a2^4; 12
	r1^1^1; 13
	r1^2 o3f2 $E8 $C0 $30 ^1; 14
	
#4-
@39 v150o5g2^4 > c2^8 < b8 g2^4 d4 e4 f4 e4^8 c8 < g1^1 > d8 e8 f4; 0C-0D
	g2^4 > c2^4 f2 e2 d4^8 e8 c2 < g1^1^2; 0E-0F
	v160o4a8 b8 > c8 d8 a1 < g8 a8 b8 > c8 g1 <; 10
	f8 g8 a8 b8 > f2 e8 f8 d4 c+2 c4 g2^4 <; 11
	a8 b8 > c8 d8 a2 b4 > c4 < g2 e4 > c2^4 <<; 12
	d+2 c4 d2^4 c2 < a4 b2^4 >; 13
	f2^4 d2^4 < b2 $E8 $C0 $30 ^1; 14
	
#5 
	r1^1^1^1^1^1 r1^1^1^1^1^1; 0C-0F
	r1^1^1^1^1^1; 10-11
@36 v255o3f2^4 f2^4 e2^4 d+2^4; 12
	o2c1^2 a2 > c4 g2^4; 13	
	g+2^4 g+2^4 b2 $E8 $C0 $30 ^1; 14
	
#6-
	r1^1^2^8^16; 0C
	r1^1^1^1^1^1; 0D-0E
	r1^1^4; 0F...
@30 v140o5 $E8 $90 $FF e24 d24 c24 < b24 > c24 < b24 g24 e24 c24 < b24 g24 e24 c24 e24 c24 < b24 g24 e24; ...[run]
	r1^1^1^1^1^1 r1^1^1^1^1^1; 10-13
	r1^1^4; 14...
	v140o2 $E8 $90 $FF d24 e24 f+24 g+24 a+24 > c24 d24 e24 f+24 g+24 a+24 > c24 d24 e24 f+24 g+24 a+24 > c24; ...[harp run] 14
	
#7-
	r16; [buffer]
	r1^1^2^8^16; 0C
	r1^1^1^1^1^1; 0D-0E
	r1^1^4; 0F...
@30 v90o5 $E8 $90 $FF e24 d24 c24 < b24 > c24 < b24 g24 e24 c24 < b24 g24 e24 c24 e24 c24 < b24 g24 e24; ...[run]
	r1^1^1^1^1^1 r1^1^1^1^1^1; 10-13
	r1^1^4; 14...
	v90o2 $E8 $90 $FF d24 e24 f+24 g+24 a+24 > c24 d24 e24 f+24 g+24 a+24 > c24 d24 e24 f+24 g+24 a+24 > c24; ...[harp run] 14
	
		